<?xml version="1.0" encoding="UTF-8" standalone="no"?> <svg width="64" height="64" viewBox="0 0 64 64" fill="none" xmlns="http://www.w3.org/2000/svg">
<path d="M60 22.7402C59.4696 22.7402 58.9609 22.9509 58.5858 23.326C58.2107 23.7011 58 24.2098 58 24.7402V39.0802C58 39.6107 58.2107 40.1194 58.5858 40.4944C58.9609 40.8695 59.4696 41.0802 60 41.0802C60.5304 41.0802 61.0391 40.8695 61.4142 40.4944C61.7893 40.1194 62 39.6107 62 39.0802V24.7402C62 24.2098 61.7893 23.7011 61.4142 23.326C61.0391 22.9509 60.5304 22.7402 60 22.7402Z" fill="black"/>
<path d="M52 6.18018C51.4696 6.18018 50.9609 6.39089 50.5858 6.76596C50.2107 7.14104 50 7.64974 50 8.18018V55.6302C50 56.1606 50.2107 56.6693 50.5858 57.0444C50.9609 57.4195 51.4696 57.6302 52 57.6302C52.5304 57.6302 53.0391 57.4195 53.4142 57.0444C53.7893 56.6693 54 56.1606 54 55.6302V8.18018C54 7.64974 53.7893 7.14104 53.4142 6.76596C53.0391 6.39089 52.5304 6.18018 52 6.18018V6.18018Z" fill="black"/>
<path d="M44 13.9102C43.4696 13.9102 42.9609 14.1209 42.5858 14.4959C42.2107 14.871 42 15.3797 42 15.9102V47.9102C42 48.4406 42.2107 48.9493 42.5858 49.3244C42.9609 49.6994 43.4696 49.9102 44 49.9102C44.5304 49.9102 45.0391 49.6994 45.4142 49.3244C45.7893 48.9493 46 48.4406 46 47.9102V15.9102C46 15.3797 45.7893 14.871 45.4142 14.4959C45.0391 14.1209 44.5304 13.9102 44 13.9102Z" fill="black"/>
<path d="M36 22.7402C35.4696 22.7402 34.9609 22.9509 34.5858 23.326C34.2107 23.7011 34 24.2098 34 24.7402V39.0802C34 39.6107 34.2107 40.1194 34.5858 40.4944C34.9609 40.8695 35.4696 41.0802 36 41.0802C36.5304 41.0802 37.0391 40.8695 37.4142 40.4944C37.7893 40.1194 38 39.6107 38 39.0802V24.7402C38 24.2098 37.7893 23.7011 37.4142 23.326C37.0391 22.9509 36.5304 22.7402 36 22.7402Z" fill="black"/>
<path d="M28 17.8804C27.4696 17.8804 26.9609 18.0911 26.5858 18.4662C26.2107 18.8412 26 19.3499 26 19.8804V43.9404C26 44.4708 26.2107 44.9795 26.5858 45.3546C26.9609 45.7297 27.4696 45.9404 28 45.9404C28.5304 45.9404 29.0391 45.7297 29.4142 45.3546C29.7893 44.9795 30 44.4708 30 43.9404V19.8804C30 19.3499 29.7893 18.8412 29.4142 18.4662C29.0391 18.0911 28.5304 17.8804 28 17.8804Z" fill="black"/>
<path d="M20 10.3804C19.4696 10.3804 18.9609 10.5911 18.5858 10.9662C18.2107 11.3412 18 11.8499 18 12.3804V51.4404C18 51.9708 18.2107 52.4795 18.5858 52.8546C18.9609 53.2297 19.4696 53.4404 20 53.4404C20.5304 53.4404 21.0391 53.2297 21.4142 52.8546C21.7893 52.4795 22 51.9708 22 51.4404V12.3804C22 11.8499 21.7893 11.3412 21.4142 10.9662C21.0391 10.5911 20.5304 10.3804 20 10.3804Z" fill="black"/>
<path d="M12 17.8804C11.4696 17.8804 10.9609 18.0911 10.5858 18.4662C10.2107 18.8412 10 19.3499 10 19.8804V43.9404C10 44.4708 10.2107 44.9795 10.5858 45.3546C10.9609 45.7297 11.4696 45.9404 12 45.9404C12.5304 45.9404 13.0391 45.7297 13.4142 45.3546C13.7893 44.9795 14 44.4708 14 43.9404V19.8804C14 19.3499 13.7893 18.8412 13.4142 18.4662C13.0391 18.0911 12.5304 17.8804 12 17.8804Z" fill="black"/>
<path d="M4 23.71C3.46957 23.71 2.96086 23.9207 2.58579 24.2957C2.21071 24.6708 2 25.1795 2 25.71V38.1C2 38.6304 2.21071 39.1391 2.58579 39.5142C2.96086 39.8892 3.46957 40.1 4 40.1C4.53043 40.1 5.03914 39.8892 5.41421 39.5142C5.78929 39.1391 6 38.6304 6 38.1V25.71C6 25.1795 5.78929 24.6708 5.41421 24.2957C5.03914 23.9207 4.53043 23.71 4 23.71Z" fill="black"/>
</svg>
